<svg  version="1.1" viewBox="0 0 595 159" xmlns="http://www.w3.org/2000/svg" xmlns:xlink="http://www.w3.org/1999/xlink">
 <defs>
  <linearGradient id="linearGradientSlvr" x1="-1869" x2="-1869" y1="794.4" y2="828" gradientTransform="matrix(1.301,0,0,1.301,1365,-35.3)" gradientUnits="userSpaceOnUse">
   <stop style="stop-color:#696969" offset="0"/>
   <stop style="stop-color:#c7c7c9" offset=".17"/>
   <stop style="stop-color:#f9f9ff" offset=".36"/>
   <stop style="stop-color:#ccccce" offset=".73"/>
   <stop style="stop-color:#696969" offset="1"/>
  </linearGradient>
  <linearGradient id="linearGradient5862" x1="-794.1" x2="-794.1" y1="896" y2="998.9" gradientTransform="matrix(1.001 0 0 1 1.395 .0333)" gradientUnits="userSpaceOnUse" xlink:href="#linearGradientSlvr"/>
  <linearGradient id="linearGradient5990" x1="-1869" x2="-1869" y1="794.4" y2="828" gradientTransform="matrix(1.301,0,0,1.301,1365,-35.3)" gradientUnits="userSpaceOnUse" xlink:href="#linearGradientSlvr"/>
  <linearGradient id="linearGradient4792" x1="-1405" x2="-1405" y1="704.4" y2="781.4" gradientTransform="scale(.7835 1.276)" gradientUnits="userSpaceOnUse">
    <stop style="stop-color:#1c072d" offset="0" >
                <animate attributeName="stop-color" dur="5000ms" repeatCount="indefinite" values="#1c072d; #1c072d; #1c072d; #1c072d; #1c072d; #5700aa; #1c072d" />
            </stop>
            <stop style="stop-color:#5700aa" offset=".29" >
                <animate attributeName="stop-color" dur="5000ms" repeatCount="indefinite" values="#5700aa; #1c072d; #1c072d; #1c072d; #5700aa; #4b127b; #5700aa" />
            </stop>
            <stop style="stop-color:#4b127b" offset=".64">
                <animate attributeName="stop-color" dur="5000ms" repeatCount="indefinite" values="#4b127b; #5700aa; #1c072d; #5700aa; #4b127b; #290a43; #4b127b" />
            </stop>
            <stop style="stop-color:#290a43" offset="1" >
                <animate attributeName="stop-color" dur="5000ms" repeatCount="indefinite" values="#290a43; #4b127b; #5700aa; #4b127b; #290a43; #1c072d; #290a43" />
            </stop>
  </linearGradient>
  <linearGradient id="linearGradient4796" x1="-1040" x2="-1040" y1="884.3" y2="1076" gradientTransform="matrix(.5122 0 0 .5116 -456 447.2)" gradientUnits="userSpaceOnUse">
   <stop style="stop-color:#141414" offset="0"/>
   <stop style="stop-color:#0a0a0a" offset=".15"/>
   <stop style="stop-color:#6d6d6d" offset=".3"/>
   <stop style="stop-color:#000000" offset=".44"/>
   <stop style="stop-color:#141414" offset=".62"/>
   <stop style="stop-color:#262626" offset=".75"/>
   <stop style="stop-color:#040404" offset="1"/>
  </linearGradient>
  <linearGradient id="linearGradient7698" x1="-1869" x2="-1869" y1="794.4" y2="828" gradientTransform="matrix(1.301 0 0 1.301 1365 -34.62)" gradientUnits="userSpaceOnUse" xlink:href="#linearGradientSlvr"/>
  <linearGradient id="linearGradient7700" x1="-1869" x2="-1869" y1="794.4" y2="828" gradientTransform="matrix(1.301 0 0 1.301 1365 -35.03)" gradientUnits="userSpaceOnUse" xlink:href="#linearGradientSlvr"/>
  <linearGradient id="linearGradient7702" x1="-1869" x2="-1869" y1="794.4" y2="828" gradientTransform="matrix(1.301,0,0,1.301,1365,-35.67)" gradientUnits="userSpaceOnUse" xlink:href="#linearGradientSlvr"/>
  <linearGradient id="linearGradient7704" x1="-1869" x2="-1869" y1="794.4" y2="828" gradientTransform="matrix(1.301 0 0 1.301 1365 -35.42)" gradientUnits="userSpaceOnUse" xlink:href="#linearGradientSlvr"/>
  <linearGradient id="linearGradient7708" x1="-1869" x2="-1869" y1="794.4" y2="828" gradientTransform="matrix(1.301 0 0 1.301 1365 -34.18)" gradientUnits="userSpaceOnUse" xlink:href="#linearGradientSlvr"/>
  <linearGradient id="linearGradient7712" x1="-1869" x2="-1869" y1="794.4" y2="828" gradientTransform="matrix(1.301 0 0 1.301 1365 -34.94)" gradientUnits="userSpaceOnUse" xlink:href="#linearGradientSlvr"/>
  <linearGradient id="linearGradient7714" x1="-1869" x2="-1869" y1="794.4" y2="828" gradientTransform="matrix(1.301 0 0 1.301 1365 -34.61)" gradientUnits="userSpaceOnUse" xlink:href="#linearGradientSlvr"/>
  <linearGradient id="linearGradient7718" x1="-1869" x2="-1869" y1="794.4" y2="828" gradientTransform="matrix(1.301 0 0 1.301 1365 -34.18)" gradientUnits="userSpaceOnUse" xlink:href="#linearGradientSlvr"/>
  <linearGradient id="linearGradient7722" x1="-1869" x2="-1869" y1="794.4" y2="828" gradientTransform="matrix(1.301 0 0 1.301 1365 -35.3)" gradientUnits="userSpaceOnUse" xlink:href="#linearGradientSlvr"/>
  <linearGradient id="linearGradient7728" x1="-1405" x2="-1405" y1="704.4" y2="781.4" gradientTransform="scale(.7835 1.276)" gradientUnits="userSpaceOnUse" xlink:href="#linearGradient4792"/>
  <linearGradient id="linearGradient7732" x1="-1040" x2="-1040" y1="884.3" y2="1076" gradientTransform="matrix(.5122 0 0 .5116 -456 447.2)" gradientUnits="userSpaceOnUse" xlink:href="#linearGradient4796"/>
 </defs>
 <g id="trans" transform="matrix(1.017 0 0 1.008 1192 -895.3)">
  <g id="1T">
   <path id="p1T" d="m-1172 997.5v8.152h12.51v38.64h9.567v-38.64h12.57v-8.152z" style="fill:#290a43"/>
   <path id="s1T" d="m-1170 1004v-4.248h30.74v4.248h-12.57v38.64h-5.664v-38.64z" style="fill:url(#linearGradient7702)"/>
  </g>
  <g id="1R" transform="translate(1.082)">
   <path id="p1R" d="m-1116 997.5c-4.313-0.026-8.64 0.6462-12.47 1.395l-1.576 0.3086v45.92h9.51v-20.55c1.19 0.2641 2.22 0.7827 3.455 1.029 0.9433 0.1878 1.965 0.1136 2.885 0.0347 2.443 1.277 3.597 4.911 4.301 7.139 0.5339 1.716 1.014 3.513 1.436 5.393v0.0195c0.7205 2.555 1.48 4.663 2.539 6.934h10.17l-1.244-2.756c-1.713-3.624-2.38-7.329-3.562-11.02v-0.01c-0.5455-1.844-1.243-3.544-2.102-5.092-0.5814-1.096-1.4-2.038-2.316-2.906 3.949-2.559 6.459-6.847 6.508-11.15-0.2665-4.176-1.994-7.957-4.93-10.44-3.688-3.011-8.284-4.228-12.6-4.252zm0 8.211h0.0156c2.154-0.0185 3.84 0.8385 5.5 1.943 1.423 1.237 1.902 2.701 2.166 4.424 0 1.93-0.9065 3.391-2.029 4.663-1.364 1.2-2.799 2.369-4.518 2.632-1.589 0.049-2.937 0.8279-4.148 1.804-0.6149 0.496-1.508 2.2-1.508 1.477v-16.67c1.508-0.2973 3.198-0.2672 4.521-0.2793z" style="fill:#290a43"/>
   <path id="s1R" d="m-1100 1012q0 3.54-2.006 6.254-1.947 2.655-5.015 4.189l-1.416 0.4719 1.18 0.472q2.183 1.475 3.304 3.599 1.18 2.124 1.947 4.72 0.826 2.537 1.534 5.428 0.767 2.832 2.124 5.841h-5.9q-1.18-2.537-1.888-5.428-0.649-2.891-1.475-5.546-0.826-2.655-2.124-4.72-1.239-2.065-3.54-2.95-0.177 0.0591-0.531 0.0591-1.298 0.118-2.773 0.0589-1.475-0.118-3.127-0.5311 0.649-1.534 1.947-2.537 1.357-1.003 3.245-1.062 1.534-0.0589 3.068-0.7079t2.714-1.711q1.239-1.121 2.006-2.655 0.7671-1.534 0.7671-3.363 0-1.77-0.7671-3.245-0.7669-1.534-2.065-2.655-1.298-1.121-3.068-1.77-1.711-0.649-3.717-0.649-1.652 0-3.009 0.059t-3.481 0.4719v38.88h-5.605v-42.36q3.304-0.6489 6.077-1.003 2.773-0.3539 6.018-0.3539 3.54 0 6.431 1.003 2.891 1.003 4.897 2.773 2.065 1.711 3.127 4.012 1.121 2.301 1.121 4.838z" style="fill:url(#linearGradient7718)"/>
  </g>
  <g id="1A" transform="translate(3.6)">
   <path id="p1A" transform="translate(-1194,851.5)" d="m120.2 146-16.87 46.8h9.775l3.537-10.27h14.9l3.555 10.27h10.19l-16.86-46.8zm3.9 15.03 6.158 17.3c-0.9572-1.27-2.934-3.95-4.635-3.95h-6.179z" style="fill:#290a43"/>
   <path id="s1A" d="m-1067 999.4 15.46 42.89h-6.018l-11.98-34.57-0.413-1.711-0.413 1.711-6.608 18.94-0.649 1.239 0.7081-0.118h7.965q2.124 0 3.245 1.298 1.121 1.239 1.77 2.95h-14.87l-3.54 10.27h-5.605l15.46-42.89z" style="fill:url(#linearGradient7704)"/>
  </g>
  <g id="1N" transform="translate(1.937)">
   <path id="p1N" d="m-1040 997.5v46.8h8.683v-30.57l19.15 30.57h8.047v-46.8h-8.861v29.37l-18.38-29.37z" style="fill:#290a43"/>
   <path id="s1N" d="m-1033 1008-0.826-2.006 0.1181 2.006v34.28h-4.779v-42.89h5.605l20.83 33.27 0.708 1.947-0.118-2.065v-33.16h4.956v42.89h-5.015z" style="fill:url(#linearGradient7722)"/>
  </g>
  <g id="S" transform="translate(-.4421)">
   <path id="pS" d="m-978.7 997.5c-3.767 0.095-7.334 1.273-9.939 3.647-2.51 2.465-3.844 5.653-3.938 8.983 0.1655 4.751 2.477 8.366 5.907 11l0.0151 0.01 0.0151 0.01c3.129 2.326 6.527 3.649 9.68 5.57 2.379 1.404 3.663 3.058 4.212 5.598 0 1.553-0.4829 2.652-1.665 3.747-3.149 2.02-6.32 1.69-9.567 1.065-1.62-0.3242-3.252-0.8484-4.901-1.581l-1.853-0.8235-2.964 7.412 1.644 0.7905c2.253 1.079 4.58 1.748 6.861 2.224 2.141 0.38 4.206 0.5558 6.256 0.6228 4.344-0.1042 8.545-1.258 11.62-3.973 2.686-2.554 4.287-5.914 4.316-9.364-0.1583-4.826-2.486-8.542-5.958-11.23-3.184-2.366-6.61-3.92-9.791-5.841-1.36-0.823-2.442-1.695-3.276-2.593-1.122-1.51-1.034-2.736-0.6864-4.359 1.051-1.962 2.634-2.484 4.604-2.702 2.737 0.088 5.396 0.4789 7.932 1.215l1.69 0.511 3.091-7.437-2.039-0.6406c-3.757-1.172-7.616-1.847-11.26-1.858z" style="fill:#290a43"/>
   <path id="sS" d="m-978.1 1004q-1.652 0-2.95 0.531-1.239 0.472-2.124 1.357-0.885 0.8849-1.357 2.065-0.413 1.121-0.413 2.419 0 2.301 1.475 3.953 1.475 1.593 3.717 2.95t4.779 2.714q2.596 1.298 4.838 3.009t3.717 4.012 1.475 5.664q0 2.183-0.944 4.248-0.885 2.065-2.714 3.658-1.77 1.593-4.366 2.537t-5.959 0.944q-1.239 0-2.773-0.177-1.534-0.1181-3.127-0.413-1.593-0.295-3.245-0.826t-3.127-1.239l1.534-3.835q2.655 1.18 5.31 1.711 2.714 0.531 4.779 0.531 4.189 0 6.49-2.065 2.301-2.124 2.301-5.192 0-2.537-1.475-4.189-1.475-1.711-3.658-3.068t-4.779-2.596q-2.596-1.298-4.779-2.891-2.183-1.652-3.658-3.894t-1.475-5.546q0-2.183 0.826-4.13 0.885-1.947 2.478-3.422t3.776-2.301 4.838-0.826q2.537 0 5.074 0.413 2.596 0.413 5.605 1.357l-1.593 3.835q-2.537-0.7669-4.72-1.003-2.124-0.295-3.776-0.295z" style="fill:url(#linearGradient7714)"/>
  </g>
  <g id="P" transform="translate(-.5709)">
   <path id="pP" d="m-939.4 997.5c-2.208 0-4.266 0.1001-6.184 0.3027-2.987 0.2977-5.117 0.6868-7.857 1.223v45.88l9.51 0.1992v-19.37c1.181 0.328 2.333 1.139 3.453 1.184 1.058 0.0439 2.07 0.2274 3.031 0.1406 1.943-0.1734 3.834-0.6068 5.65-1.299 3.681-1.489 6.744-4.048 8.535-7.373 1.752-3.911 1.763-8.187 0.0898-11.8-1.962-3.916-5.388-6.58-9.137-7.912-2.166-0.7934-4.536-1.18-7.086-1.18zm0 8.209c2.168-0.03 3.905 0.7366 5.477 1.971 1.578 1.238 2.085 3.006 2.193 4.75-0.2841 3.989-3.333 5.969-6.604 6.951-1.624 0.3287-2.507 0.6782-3.869 1.477-0.7693 0.4507-1.428 1.7-1.727 2.467v-17.37c1.584-0.1012 3.209-0.2455 4.529-0.25z" style="fill:#290a43"/>
   <path id="sP" d="m-923.8 1012q0 2.832-1.18 5.074-1.121 2.242-3.068 3.894-1.947 1.593-4.425 2.537-2.478 0.9441-5.133 1.18-1.298 0.118-2.773 0.0589-1.475-0.0589-3.127-0.5308 0.649-1.534 1.947-2.537 1.357-1.062 3.245-1.062 1.534 0 3.068-0.649 1.534-0.6489 2.714-1.77 1.239-1.18 2.006-2.714 0.767-1.593 0.767-3.481 0-1.829-0.767-3.422-0.767-1.593-2.065-2.773-1.298-1.18-3.068-1.829-1.711-0.649-3.717-0.649-3.304 0-6.49 0.354v39l-5.605-0.1179v-42.36q3.304-0.649 6.077-0.885 2.773-0.295 6.018-0.295 3.54 0 6.431 1.062 2.891 1.003 4.897 2.773 2.065 1.77 3.127 4.13 1.121 2.36 1.121 5.015z" style="fill:url(#linearGradient7712)"/>
  </g>
  <g id="1O" transform="translate(-1.798)">
   <path id="p1O" d="m-892.6 997.5c-2.893-0.0865-5.729 0.3503-8.35 1.336l-4e-3 -0.0117c-5.702 2.436-9.885 6.982-12.17 12.13v0.0195c-2.403 6.848-2.612 14.21-0.2695 20.67v0.0234c2.239 5.661 6.393 10.07 11.62 12.48 5.626 2.162 11.76 2.146 16.92 0h0.0293c5.591-2.605 9.627-7.369 11.71-12.58 2.163-6.428 2.22-13.13 0.334-19.17-1.957-5.834-6.021-10.61-11.11-13.09-2.853-1.113-5.804-1.724-8.697-1.811zm-0.748 8.264c3.274 0.083 6.447 1.59 8.379 3.893l4e-3 -2e-3c2.544 3.547 3.561 7.783 3.643 11.94-0.122 4.233-1.034 8.395-3.439 11.63l-0.0137 0.01-0.0156 0.0156c-2.143 2.707-5.176 4.344-8.465 4.453-3.507-0.091-6.43-1.817-8.426-4.268-2.548-3.58-3.469-7.879-3.488-11.83 0.0227-5.813 2.66-12.51 7.402-15 1.423-0.6095 2.932-0.8659 4.42-0.8281z" style="fill:#290a43"/>
   <path id="s1O" d="m-913 1022q0-5.664 1.77-9.852 1.829-4.189 4.72-6.962t6.372-4.13q3.54-1.357 7.021-1.357 4.779 0 8.496 1.77t6.254 4.838q2.537 3.009 3.835 7.08t1.298 8.614q0 5.133-1.593 9.263-1.593 4.071-4.366 7.021-2.714 2.891-6.313 4.484-3.599 1.534-7.611 1.534-4.13 0-7.788-1.534-3.599-1.534-6.313-4.366-2.655-2.891-4.248-7.021-1.534-4.13-1.534-9.381zm6.018 0q0 4.012 1.003 7.316 1.062 3.304 2.891 5.723 1.888 2.36 4.425 3.717 2.537 1.298 5.546 1.298 3.127 0 5.664-1.416 2.596-1.416 4.366-3.835 1.829-2.419 2.832-5.723t1.003-7.08q0-4.13-1.121-7.434-1.062-3.363-2.95-5.723t-4.425-3.599-5.369-1.239-5.369 1.239-4.425 3.599-3.009 5.723q-1.062 3.304-1.062 7.434z" style="fill:url(#linearGradient7698)"/>
  </g>
  <g id="2R" transform="translate(-4.309)">
   <path id="p2R" d="m-844.2 1026c0.5012 0.2188 1.481 1.905 1.934 2.429 1.78 3.092 2.669 6.621 3.374 9.69v0.038c0.6894 2.637 1.473 4.63 2.539 6.916h10.17c-1.254-2.709-2.548-5.706-3.261-8.304-0.432-1.702-1.034-3.886-1.545-5.47-0.998-3.05-2.249-5.935-4.418-8.004 1.577-1.03 3.01-2.225 4.118-3.734 1.578-2.136 2.389-4.686 2.389-7.414-0.2667-4.176-1.993-7.957-4.929-10.44-3.688-3.011-8.285-4.229-12.6-4.253-4.313-0.027-8.639 0.6446-12.47 1.393l-1.576 0.3102v45.92h9.509c0-12.94-0.0741-27.39 0.0151-39.13 2.55-0.433 5.415-0.2785 7.546 0.2406h0.0302c2.758 1.273 4.586 3.056 4.632 5.839 0.0491 2.998-1.533 5.277-3.803 6.505-1.243 1.152-4.751 0.8079-6.327 2.158-2.037 1.744-1.886 2.385-2.193 3.608 2.368 1.703 4.134 1.393 6.872 1.702z" style="fill:#290a43"/>
   <path id="s2R" d="m-830.9 1012q0 3.54-2.006 6.254-1.947 2.655-5.015 4.189l-1.416 0.4719 1.18 0.472q2.183 1.475 3.304 3.599 1.18 2.124 1.947 4.72 0.826 2.537 1.534 5.428 0.767 2.832 2.124 5.841h-5.9q-1.18-2.537-1.888-5.428-0.649-2.891-1.475-5.546-0.826-2.655-2.124-4.72-1.239-2.065-3.54-2.95-0.177 0.0591-0.531 0.0591-1.298 0.118-2.773 0.0589-1.475-0.118-3.127-0.5311 0.649-1.534 1.947-2.537 1.357-1.003 3.245-1.062 1.534-0.0589 3.068-0.7079t2.714-1.711q1.239-1.121 2.006-2.655 0.767-1.534 0.767-3.363 0-1.77-0.767-3.245-0.767-1.534-2.065-2.655t-3.068-1.77q-1.711-0.649-3.717-0.649-1.652 0-3.009 0.059t-3.481 0.4719v38.88h-5.605v-42.36q3.304-0.6489 6.077-1.003 2.773-0.3539 6.018-0.3539 3.54 0 6.431 1.003 2.891 1.003 4.897 2.773 2.065 1.711 3.127 4.012 1.121 2.301 1.121 4.838z" style="fill:url(#linearGradient7708)"/>
  </g>
  <g id="2T" transform="translate(-2.931)">
   <path id="p2T" d="m-821.8 997.5v8.152h12.51v38.64h9.568v-38.64h12.57v-8.152z" style="fill:#290a43"/>
   <path id="s2T" d="m-819.9 1004v-4.248h30.74v4.248h-12.57v38.64h-5.664v-38.64z" style="fill:url(#linearGradient7702)"/>
  </g>
  <g id="2A" transform="translate(-1.246)">
   <path id="p2A" transform="translate(-1194,851.5)" d="m427 146-16.87 46.8h9.775l3.539-10.27h14.9l3.557 10.27h10.18l-16.86-46.8zm3.9 15.03 6.164 17.11c-1.128-1.316-1.372-2.977-4.516-3.471l-6.305-0.291z" style="fill:#290a43"/>
   <path id="s2A" d="m-760.1 999.4 15.46 42.89h-6.018l-11.98-34.57-0.413-1.711-0.413 1.711-6.608 18.94-0.649 1.239 0.708-0.118h7.965q2.124 0 3.245 1.298 1.121 1.239 1.77 2.95h-14.87l-3.54 10.27h-5.605l15.46-42.89z" style="fill:url(#linearGradient7704)"/>
  </g>
  <g id="3T" transform="translate(.3042)">
   <path id="p3T" d="m-738.7 997.5v8.152h12.51v38.64h9.567v-38.64h12.57v-8.152z" style="fill:#290a43"/>
   <path id="s3T" d="m-736.8 1004v-4.248h30.74v4.248h-12.57v38.64h-5.664v-38.64z" style="fill:url(#linearGradient7702)"/>
  </g>
  <g id="I" transform="translate(4.367)">
   <path id="pI" d="m-696.7 997.5v46.8h9.331v-46.8z" style="fill:#290a43"/>
   <path id="sI" d="m-689.3 1042h-5.428v-42.89h5.428z" style="fill:url(#linearGradient7700)"/>
  </g>
  <g id="2O" transform="translate(3.679)">
   <path id="p2O" d="m-655.8 997.5c-2.893-0.087-5.727 0.351-8.352 1.338l-4e-3 -0.0117c-5.702 2.436-9.886 6.982-12.17 12.13v0.0195c-2.401 6.848-2.608 14.21-0.2656 20.67v0.0234c2.239 5.661 6.391 10.07 11.62 12.48 5.626 2.162 11.76 2.146 16.92 0h0.0293c5.591-2.605 9.626-7.368 11.71-12.58 2.165-6.428 2.222-13.13 0.3359-19.17-1.958-5.833-6.021-10.61-11.11-13.09-2.855-1.113-5.806-1.726-8.699-1.812zm-0.6367 8.051c3.395 0.1159 6.335 1.725 8.27 4.105 2.543 3.546 3.561 7.786 3.643 11.94-0.1224 4.233-1.034 8.395-3.439 11.63l-0.0156 0.01-0.0156 0.0156c-2.143 2.706-5.173 4.344-8.461 4.453-3.507-0.091-6.43-1.817-8.426-4.268-2.548-3.58-3.469-7.879-3.488-11.83 0.0937-4.36 1.089-8.624 3.643-11.94 2.451-2.276 5.515-4.032 8.287-4.105z" style="fill:#290a43"/>
   <path id="s2O" d="m-676.2 1022q0-5.664 1.77-9.852 1.829-4.189 4.72-6.962t6.372-4.13q3.54-1.357 7.021-1.357 4.779 0 8.496 1.77t6.254 4.838q2.537 3.009 3.835 7.08t1.298 8.614q0 5.133-1.593 9.263-1.593 4.071-4.366 7.021-2.714 2.891-6.313 4.484-3.599 1.534-7.611 1.534-4.13 0-7.788-1.534-3.599-1.534-6.313-4.366-2.655-2.891-4.248-7.021-1.534-4.13-1.534-9.381zm6.018 0q0 4.012 1.003 7.316 1.062 3.304 2.891 5.723 1.888 2.36 4.425 3.717 2.537 1.298 5.546 1.298 3.127 0 5.664-1.416 2.596-1.416 4.366-3.835 1.829-2.419 2.832-5.723t1.003-7.08q0-4.13-1.121-7.434-1.062-3.363-2.95-5.723t-4.425-3.599-5.369-1.239-5.369 1.239-4.425 3.599-3.009 5.723q-1.062 3.304-1.062 7.434z" style="fill:url(#linearGradient7698)"/>
  </g>
  <g id="2N" transform="translate(-7.014e-5)">
   <path id="p2N" d="m-622.8 997.5v46.8h8.683v-30.57l19.15 30.57h8.047v-46.8h-8.861v29.37l-18.38-29.37z" style="fill:#290a43"/>
   <path id="s2N" d="m-615.3 1008-0.826-2.006 0.118 2.006v34.28h-4.779v-42.89h5.605l20.83 33.27 0.708 1.947-0.118-2.065v-33.16h4.956v42.89h-5.015z" style="fill:url(#linearGradient5990)"/>
  </g>
 </g>
 <g id="res" transform="matrix(1 0 0 1.005 1182 -897.5)">
  <g id="rO" transform="translate(.4495 -.3817)">
   <path id="rsO" d="m-963.6 925.7c-2.571 6.198-3.856 13.32-3.856 21.38 0 7.614 1.15 14.52 3.454 20.72 4.292 12.09 12.99 21.82 23.93 26.03 12.17 4.644 25.1 4.687 36.56-0.264 11.38-4.954 20.08-14.97 24.06-26.17 4.513-11.63 4.578-26.85 0.6667-39.18-3.769-12.63-11.97-22.24-22.86-27.23-12.64-5.171-25.23-5.559-37.45-0.6385s-20.07 14.21-24.51 25.35zm42-17.93c8.802 0.173 16.62 3.909 21.53 10.76 6.36 8.382 8.694 18.07 8.644 28.55-0.168 10.33-2.721 20.47-8.511 28.29-5.463 7.011-13.53 11.09-21.67 11.16-9.137-0.1289-17.06-4.412-21.93-11.29-6.087-8.456-8.329-18.69-8.375-28.15 0.2042-10.32 2.599-20.62 8.508-28.42 5.476-7.356 13.73-10.82 21.8-10.89z" style="fill:url(#linearGradient5862);stroke-width:7.266;stroke:url(#linearGradient5862)"/>
   <path id="rpO" d="m-963.6 925.7c-2.571 6.198-3.856 13.32-3.856 21.38 0 7.614 1.15 14.52 3.454 20.72 4.292 12.09 12.99 21.82 23.93 26.03 12.17 4.644 25.1 4.687 36.56-0.264 11.38-4.954 20.08-14.97 24.06-26.17 4.513-11.63 4.578-26.85 0.6667-39.18-3.769-12.63-11.97-22.24-22.86-27.23-12.64-5.171-25.23-5.559-37.45-0.6385s-20.07 14.21-24.51 25.35zm63.53-7.17c6.36 8.382 8.694 18.07 8.644 28.55-0.168 10.33-2.721 20.47-8.511 28.29-5.463 7.011-13.53 11.09-21.67 11.16-9.137-0.1289-17.06-4.412-21.93-11.29-6.087-8.456-8.329-18.69-8.375-28.15 0.2042-10.32 2.599-20.62 8.508-28.42 5.476-7.356 13.73-10.82 22.17-10.77s16.26 3.782 21.17 10.63z" style="fill:url(#linearGradient4792);stroke-width:3.562;stroke:url(#linearGradient4792)"/>
   <path id="rbO" d="m-938.7 900.3c-12.31 5.119-20.96 14.94-24.81 25.45-5.583 13.95-4.669 30.35-0.4023 42.02 2.301 6.186 5.442 11.49 9.424 15.91 4.07 4.33 8.894 7.688 14.47 10.07 12.27 4.587 24.75 4.789 36.49-0.2637 12.21-5.136 19.87-15.29 24.03-26.12 4.623-12.16 4.567-26.8 0.6641-39.11-3.889-12.17-11.14-21.72-22.83-27.18-13.91-5.224-25.53-5.315-37.04-0.7773zm28.95 10.34c9.328 5.008 13.41 12.45 15.92 20.41 2.858 10.72 3.092 21.77 0 31.82-2.828 9.264-8.191 16.62-15.79 20.68-8.061 4.191-17.15 3.718-24.41 0-8.166-4.712-13.21-12.77-15.79-20.81-2.687-10.61-2.921-21.63 0.1328-31.55 2.798-8.749 7.502-16.01 15.79-20.41 8.156-3.639 15.98-4.068 24.14-0.1348z" style="fill:url(#linearGradient7732)"/>
  </g>
  <g id="rS" transform="translate(.249 -.458)">
   <path id="rsS" d="m-1004 897.5c-3.988 0-7.666 0.619-11.03 1.859-3.367 1.151-6.292 2.791-8.775 4.915-2.482 2.125-4.431 4.692-5.85 7.702-1.329 3.01-1.996 6.331-1.996 9.961 0 4.958 1.107 9.119 3.323 12.48 2.216 3.365 4.964 6.287 8.243 8.766 3.367 2.391 6.957 4.559 10.77 6.507 3.9 1.859 7.488 3.807 10.77 5.844 3.367 1.948 6.16 4.163 8.376 6.642s3.323 5.533 3.323 9.163c0 2.125-0.4437 4.117-1.329 5.976-0.8863 1.859-2.126 3.496-3.721 4.913-1.596 1.328-3.546 2.39-5.85 3.187s-4.918 1.196-7.843 1.196c-3.19 0-6.826-0.3987-10.9-1.196-4.077-0.7969-8.241-2.168-12.49-4.115l-3.856 9.694c4.963 2.391 9.97 4.028 15.02 4.913 5.052 0.9739 9.484 1.461 13.29 1.461 5.052 0 9.574-0.6638 13.56-1.991 3.988-1.417 7.354-3.274 10.1-5.576 2.748-2.302 4.83-5.004 6.247-8.103 1.507-3.187 2.261-6.596 2.261-10.23 0-5.047-1.107-9.295-3.323-12.75-2.215-3.542-5.008-6.598-8.376-9.166-3.368-2.656-7.001-4.957-10.9-6.904-3.9-2.036-7.535-4.073-10.9-6.109-3.367-2.036-6.158-4.207-8.374-6.509-2.216-2.391-3.323-5.266-3.323-8.631 0-3.63 1.283-6.731 3.854-9.298 2.571-2.568 6.203-3.953 10.9-3.953 2.571 0 5.451 0.3229 8.642 0.7657 3.279 0.3544 6.87 1.108 10.77 2.259l3.987-9.563c-4.875-1.505-9.218-2.567-13.03-3.187-3.811-0.6196-7.665-0.9305-11.56-0.9305z" style="fill:url(#linearGradient5862);stroke-width:7.266;stroke:url(#linearGradient5862)"/>
   <path id="rpS" d="m-1004 897.5c-3.988 0-7.666 0.619-11.03 1.859-3.367 1.151-6.292 2.791-8.775 4.915-2.482 2.125-4.431 4.692-5.85 7.702-1.329 3.01-1.996 6.331-1.996 9.961 0 4.958 1.107 9.119 3.323 12.48 2.216 3.365 4.964 6.287 8.243 8.766 3.367 2.391 6.957 4.559 10.77 6.507 3.9 1.859 7.488 3.807 10.77 5.844 3.367 1.948 6.16 4.163 8.376 6.642s3.323 5.533 3.323 9.163c0 2.125-0.4437 4.117-1.329 5.976-0.8863 1.859-2.126 3.496-3.721 4.913-1.596 1.328-3.546 2.39-5.85 3.187s-4.918 1.196-7.843 1.196c-3.19 0-6.826-0.3987-10.9-1.196-4.077-0.7969-8.241-2.168-12.49-4.115l-3.856 9.694c4.963 2.391 9.97 4.028 15.02 4.913 5.052 0.9739 9.484 1.461 13.29 1.461 5.052 0 9.574-0.6638 13.56-1.991 3.988-1.417 7.354-3.274 10.1-5.576 2.748-2.302 4.83-5.004 6.247-8.103 1.507-3.187 2.261-6.596 2.261-10.23 0-5.047-1.107-9.295-3.323-12.75-2.215-3.542-5.008-6.598-8.376-9.166-3.368-2.656-7.001-4.957-10.9-6.904-3.9-2.036-7.535-4.073-10.9-6.109-3.367-2.036-6.158-4.207-8.374-6.509-2.216-2.391-3.323-5.266-3.323-8.631 0-3.63 1.283-6.731 3.854-9.298 2.571-2.568 6.203-3.953 10.9-3.953 2.571 0 5.451 0.3229 8.642 0.7657 3.279 0.3544 6.87 1.108 10.77 2.259l3.987-9.563c-4.875-1.505-9.218-2.567-13.03-3.187-3.811-0.6196-7.665-0.9305-11.56-0.9305z" style="fill:url(#linearGradient4792);stroke-width:3.961;stroke:url(#linearGradient4792)"/>
   <path id="rbS" d="m-1004 897.5c-3.989 0-7.667 0.6192-11.03 1.859-6.856 2.318-11.81 6.636-14.63 12.62-3.07 7.237-2.645 16.24 1.329 22.44 2.217 3.365 4.964 6.287 8.244 8.766 7.49 5.453 14.35 7.812 21.54 12.35 3.368 1.948 6.161 4.162 8.377 6.641 4.039 4.515 3.986 11.42 1.992 15.14-2.365 4.713-5.68 6.731-9.572 8.102-6.057 2.064-12.79 1.078-18.74 0-4.078-0.7969-8.243-2.167-12.49-4.115l-3.858 9.694c4.964 2.391 9.972 4.028 15.03 4.914 9.237 1.865 18.03 2.243 26.87-0.532 7.403-2.73 13.11-6.755 16.35-13.68 1.507-3.187 2.261-6.596 2.261-10.23 0-5.047-1.106-9.296-3.323-12.75-4.87-7.697-12.06-12.43-19.28-16.07-6.902-3.828-13.85-7.055-19.28-12.62-5.056-5.672-3.906-13.82 0.533-17.93 2.571-2.568 6.204-3.853 10.9-3.853 6.737 0.1317 13.47 1.112 19.41 2.925l3.987-9.565c-4.876-1.505-9.221-2.566-13.04-3.186-3.948-0.4256-8.016-0.9076-11.59-0.9223z" style="fill:url(#linearGradient7732)"/>
  </g>
  <g id="rR" transform="translate(-2.574 -.437)">
   <path id="rsR" d="m-1154 899.2c-4.631 0.2572-9.246 0.6946-13.42 1.461-2.393 0.3544-5.007 0.7948-7.843 1.326v95.36h14.49v-86.46c3.013-0.5312 5.406-0.842 7.179-0.9305 1.861-0.0878 4.032-0.1348 6.514-0.1348 2.836 0 5.496 0.4868 7.978 1.461 2.571 0.8854 4.785 2.126 6.646 3.72s3.323 3.498 4.387 5.711c1.152 2.213 1.728 4.56 1.728 7.039 0 2.568-0.5316 4.915-1.596 7.039-0.9748 2.125-2.302 3.983-3.987 5.576-1.596 1.594-3.458 2.878-5.584 3.852-2.127 0.8853-3.152 1.77-5.279 1.859-2.836 0.1769-5.229 1.394-7.179 3.253s-3.014 2.944-3.989 5.246c2.038 0.5312 3.556 0.597 5.417 0.7739 1.95 0.1768 3.799 0.2123 5.483 0.1238 0.8438 0.05143 1.776-0.03962 2.526-0.1325 3.19 1.505 4.571 4.503 6.343 7.601 1.773 3.099 3.235 6.596 4.387 10.49 1.241 3.807 2.348 7.835 3.323 12.09 0.9749 4.161 2.349 8.101 4.122 11.82h15.02c-2.127-4.604-3.766-9.163-4.918-13.68-1.063-4.604-2.261-8.897-3.591-12.88-1.329-4.073-3.012-7.66-5.051-10.76-1.95-3.187-4.831-5.708-8.642-7.568l3.323-1.198c4.52-2.302 8.155-5.444 10.9-9.429 2.748-4.073 4.119-8.764 4.119-14.08 0-4.073-0.8868-7.881-2.66-11.42-1.684-3.542-4.121-6.596-7.312-9.163-3.191-2.568-7-4.56-11.43-5.976-7.319-2.056-14.41-2.539-21.41-1.99z" style="fill:url(#linearGradient5862);stroke-width:7.266;stroke:url(#linearGradient5862)"/>
   <path id="rpR" d="m-1154 899.2c-4.631 0.2572-9.246 0.6946-13.42 1.461-2.393 0.3544-5.007 0.7948-7.843 1.326v95.36h14.49v-86.46c3.013-0.5312 5.406-0.842 7.179-0.9305 1.861-0.0878 4.032-0.1348 6.514-0.1348 2.836 0 5.496 0.4868 7.978 1.461 2.571 0.8854 4.785 2.126 6.646 3.72s3.323 3.498 4.387 5.711c1.152 2.213 1.728 4.56 1.728 7.039 0 2.568-0.5316 4.915-1.596 7.039-0.9748 2.125-2.302 3.983-3.987 5.576-1.596 1.594-3.458 2.878-5.584 3.852-2.127 0.8853-3.852 1.372-5.979 1.461-2.836 0.1769-5.229 1.195-7.179 3.054s-3.414 3.94-4.389 6.242c2.038 0.5312 3.991 0.8861 5.852 1.063 1.95 0.1768 3.765 0.221 5.449 0.1325 0.8438 0.05143 1.776-0.03962 2.526-0.1325 3.19 1.505 5.271 3.806 7.043 6.904 1.773 3.099 3.235 6.596 4.387 10.49 1.241 3.807 2.348 7.835 3.323 12.09 0.9749 4.161 2.349 8.101 4.122 11.82h15.02c-2.127-4.604-3.766-9.163-4.918-13.68-1.063-4.604-2.261-8.897-3.591-12.88-1.329-4.073-3.012-7.66-5.051-10.76-1.95-3.187-4.831-5.708-8.642-7.568l3.323-1.198c4.52-2.302 8.155-5.444 10.9-9.429 2.748-4.073 4.119-8.764 4.119-14.08 0-4.073-0.8868-7.881-2.66-11.42-1.684-3.542-4.121-6.596-7.312-9.163-3.191-2.568-7-4.56-11.43-5.976-7.319-2.056-14.41-2.539-21.41-1.99z" style="fill:url(#linearGradient4792);stroke-width:3.562;stroke:url(#linearGradient4792)"/>
   <path id="rbR" d="m-1175 902.1v95.35h14.5v-86.46c4.553-0.94 9.579-1.061 13.69-1.064 2.836 0 5.498 0.4857 7.98 1.46 7.621 2.767 12.67 9.152 12.77 16.47-0.0402 7.634-5.438 13.71-11.17 16.47-2.127 0.8853-4.253 1.373-6.38 1.462-2.836 0.1769-5.23 1.195-7.18 3.055-1.95 1.859-3.415 3.938-4.39 6.24 2.038 0.5312 3.991 0.8875 5.852 1.064 2.412 0.2265 4.38 0.1311 6.648 0.1311 0.4433 0 0.887-0.0419 1.331-0.1311 3.191 1.505 5.674 3.805 7.447 6.904 3.865 7.281 6.005 15.19 7.711 22.58 0.975 4.161 2.349 8.1 4.122 11.82h15.03c-2.128-4.604-3.768-9.163-4.92-13.68-2.104-8.357-4.198-16.79-8.643-23.64-1.95-3.187-4.832-5.708-8.644-7.567l3.325-1.2c4.521-2.302 8.157-5.444 10.9-9.428 5.111-7.705 5.328-17.6 1.46-25.5-3.951-7.808-11.31-12.71-18.75-15.14-4.343-1.505-9.175-2.258-14.5-2.258-8.718-0.06866-20.07 1.435-28.19 3.062z" style="fill:url(#linearGradient7732)"/>
  </g>
  <g id="rU" transform="translate(.4495 -.3959)">
   <path id="rsU" d="m-807.8 899.1 0.2005 60.36c0.01942 5.844 0.8423 11.11 2.527 15.8 1.684 4.604 4.075 8.542 7.177 11.82 3.19 3.276 7.046 5.801 11.56 7.572 4.52 1.771 9.662 2.654 15.43 2.654 5.494 0 10.46-0.8837 14.88-2.654 4.52-1.859 8.373-4.429 11.56-7.705 3.19-3.364 5.673-7.349 7.444-11.95 1.773-4.693 2.66-9.871 2.66-15.54v-60.36h-14.22v62.49c0 3.807-0.5316 7.26-1.596 10.36-1.064 3.099-2.617 5.756-4.655 7.97-1.95 2.125-4.296 3.762-7.044 4.913s-5.761 1.726-9.04 1.726c-3.367 0-6.427-0.5755-9.175-1.726-2.659-1.151-5.006-2.788-7.044-4.913-1.95-2.213-3.456-4.871-4.52-7.97s-1.596-6.552-1.596-10.36l-0.2005-62.49z" style="fill:url(#linearGradient5862);stroke-width:7.266;stroke:url(#linearGradient5862)"/>
   <path id="rpU" d="m-807.8 899.1 0.2005 60.36c0.01942 5.844 0.8423 11.11 2.527 15.8 1.684 4.604 4.075 8.542 7.177 11.82 3.19 3.276 7.046 5.801 11.56 7.572 4.52 1.771 9.662 2.654 15.43 2.654 5.494 0 10.46-0.8837 14.88-2.654 4.52-1.859 8.373-4.429 11.56-7.705 3.19-3.364 5.673-7.349 7.444-11.95 1.773-4.693 2.66-9.871 2.66-15.54v-60.36h-14.22v62.49c0 3.807-0.5316 7.26-1.596 10.36-1.064 3.099-2.617 5.756-4.655 7.97-1.95 2.125-4.296 3.762-7.044 4.913s-5.761 1.726-9.04 1.726c-3.367 0-6.427-0.5755-9.175-1.726-2.659-1.151-5.006-2.788-7.044-4.913-1.95-2.213-3.456-4.871-4.52-7.97s-1.596-6.552-1.596-10.36l-0.2005-62.49z" style="fill:url(#linearGradient4792);stroke-width:3.562;stroke:url(#linearGradient4792)"/>
   <path id="rbU" d="m-807.9 899v60.56c0.1335 11.8 3.076 20.51 9.705 27.63 8.642 8.115 17.98 10.17 27.29 10.23 11.34 0.00894 19.8-3.631 26.45-10.36 7.934-8.374 10.05-18.02 10.1-27.49v-60.56h-14.53v62.68c-0.09908 7.232-1.949 13.58-6.252 18.33-4.563 5.039-9.68 6.482-15.79 6.64-6.343-0.04821-11.62-1.929-16.22-6.64-4.852-5.78-6.081-12.13-6.114-18.33v-62.68z" style="fill:url(#linearGradient7732)"/>
  </g>
  <g id="rL" transform="translate(.6492 -.44)">
   <path id="rsL" d="m-867 900.8v96.55h53.31c-0.1008-3.599 0.1294-7.599 0.1326-10.89h-38.82v-85.66z" style="fill:url(#linearGradient5862);stroke-width:7.266;stroke:url(#linearGradient5862)"/>
   <path id="rpL" d="m-867 900.8v96.55h53.31c-0.1008-3.599 0.1294-7.599 0.1326-10.89h-38.82v-85.66z" style="fill:url(#linearGradient4792);stroke-width:3.562;stroke:url(#linearGradient4792)"/>
   <path id="rbL" d="m-867 900.8v96.65h53.32c-0.1014-3.599 0.13-7.599 0.1332-10.89h-38.83v-85.76z" style="fill:url(#linearGradient7732)"/>
  </g>
  <g id="rT" transform="translate(.6493 -.44)">
   <path id="rsT" d="m-726.4 900.8v10.76h27.26v85.79h14.62v-85.79h27.39v-10.76z" style="fill:url(#linearGradient5862);stroke-width:7.266;stroke:url(#linearGradient5862)"/>
   <path id="rpT" d="m-726.4 900.8v10.76h27.26v85.79h14.62v-85.79h27.39v-10.76z" style="fill:url(#linearGradient4792);stroke-width:3.562;stroke:url(#linearGradient4792)"/>
   <path id="rbT" d="m-726.4 900.8v10.76h27.25v85.79h14.63v-85.79h27.39v-10.76z" style="fill:url(#linearGradient7732)"/>
  </g>
  <g id="r2E" transform="translate(1.05 -.44)">
   <path id="rs2E" d="m-649.3 900.8v96.55h57.96v-10.76h-43.47v-75.04h41.48v-10.75zm35.11 41.24c-1.684 0-3.187-0.08927-4.517 0.5308-1.241 0.6196-2.349 1.218-3.323 2.192-0.9752 0.9739-1.817 2.081-2.526 3.32-0.6203 1.239-1.152 1.925-1.596 3.253h30.7v-9.295z" style="fill:url(#linearGradient5862);stroke-width:7.266;stroke:url(#linearGradient5862)"/>
   <path id="rp2E" d="m-649.3 900.8v96.55h57.96v-10.76h-43.47v-75.04h41.48v-10.75zm34.21 40.64c-1.684 0-3.187 0.3096-4.517 0.9297-1.241 0.6196-2.349 1.417-3.323 2.391-0.9752 0.9739-1.817 2.081-2.526 3.32-0.6203 1.239-1.152 2.522-1.596 3.85h32.1v-10.49z" style="fill:url(#linearGradient4792);stroke-width:3.562;stroke:url(#linearGradient4792)"/>
   <path id="rb2E" d="m-649.3 900.8v96.55h57.97v-10.75h-43.47v-75.04h41.49v-10.75zm34.21 40.44c-1.684 0-3.391 0.509-4.72 1.129-4.045 2.162-5.996 5.371-7.448 9.761h32.41l-3.7e-4 -10.89z" style="fill:url(#linearGradient7732)"/>
  </g>
  <g id="r1E" transform="translate(-450.6 -.44)">
   <path id="rs1E" d="m-649.3 900.8v96.55h57.96v-10.76h-43.47v-75.04h41.48v-10.75zm35.11 41.24c-1.684 0-3.187-0.08927-4.517 0.5308-1.241 0.6196-2.349 1.218-3.323 2.192-0.9752 0.9739-1.817 2.081-2.526 3.32-0.6203 1.239-1.152 1.925-1.596 3.253h30.7v-9.295z" style="fill:url(#linearGradient5862);stroke-width:7.266;stroke:url(#linearGradient5862)"/>
   <path id="rp1E" d="m-649.3 900.8v96.55h57.96v-10.76h-43.47v-75.04h41.48v-10.75zm34.21 40.64c-1.684 0-3.187 0.3096-4.517 0.9297-1.241 0.6196-2.349 1.417-3.323 2.391-0.9752 0.9739-1.817 2.081-2.526 3.32-0.6203 1.239-1.152 2.522-1.596 3.85h32.1v-10.49z" style="fill:url(#linearGradient4792);stroke-width:3.562;stroke:url(#linearGradient4792)"/>
   <path id="rb1E" d="m-649.3 900.8v96.55h57.97v-10.75h-43.47v-75.04h41.49v-10.75zm34.21 40.64c-1.684 0-3.191 0.3094-4.52 0.9295-4.045 2.162-5.996 5.171-7.448 9.561h31.91v-10.49z" style="fill:url(#linearGradient7732)"/>
  </g>
 </g>
</svg>
